<svg xmlns="http://www.w3.org/2000/svg" viewBox="0 0 28 28" enable-background="new 0 0 28 28" xmlns:xlink="http://www.w3.org/1999/xlink"><defs><linearGradient id="0" gradientUnits="userSpaceOnUse" y1="6.732" x2="0" y2="21.2"><stop stop-color="#fff"/><stop stop-color="#eeeeec"/><stop stop-color="#286586"/><stop offset="1" stop-color="#1a3356"/><stop offset="1"/></linearGradient><linearGradient id="1" gradientUnits="userSpaceOnUse" y1="6.752" x2="0" y2="21.17" xlink:href="#0"/><linearGradient id="2" gradientUnits="userSpaceOnUse" y1="0" x2="0" y2="28"><stop stop-color="#fff"/><stop stop-color="#f5f5f4"/><stop stop-color="#286586"/><stop offset="1" stop-color="#1a3356"/><stop offset="1"/></linearGradient></defs><path d="m14 1c7.2 0 13 5.8 13 13s-5.8 13-13 13-13-5.8-13-13 5.8-13 13-13m0-1c-7.7 0-14 6.3-14 14s6.3 14 14 14 14-6.3 14-14-6.3-14-14-14z" fill="url(#2)"/><path d="m8 21l13.1-13.1c.3-.3.3-.7 0-1-.3-.3-.7-.3-1 0l-13.1 13.1c-.3.3-.3.7 0 1 .3.3.7.3 1 0" fill="url(#0)"/><path d="m21 20l-13-13c-.2-.3-.7-.3-1 0-.2.2-.2.7 0 1l13 13c.3.3.7.3 1 0 .3-.3.3-.8 0-1" fill="url(#1)"/></svg>