<svg xmlns="http://www.w3.org/2000/svg" viewBox="0 0 512 512" enable-background="new 0 0 512 512"><defs><linearGradient id="0" gradientUnits="userSpaceOnUse" y1=".26" x2="0" y2="511.74"><stop stop-color="#fff"/><stop stop-color="#286586"/><stop offset="1" stop-color="#1a3356"/><stop offset="1"/></linearGradient></defs><path d="m433.2.3c.1 0 0 0 0 0"/><path d="m512 136.7c0-.1 0-.3 0-.4 0-.2 0-.4-.1-.6 0-.1 0-.3 0-.4 0-.2-.1-.4-.1-.6 0-.1 0-.2-.1-.4-.1-.2-.1-.5-.2-.7 0-.1 0-.2-.1-.2-.1-.3-.2-.6-.3-.9 0-.1 0-.1-.1-.2-.1-.3-.2-.5-.3-.8 0-.1-.1-.2-.1-.3-.1-.2-.2-.4-.3-.5l-64-122.5c-2.5-4.9-7.6-7.9-13.1-7.9h-354.4c-5.5 0-10.5 3.1-13.1 7.9l-64 122.5c-.1.2-.2.4-.3.5 0 .1-.1.2-.1.3-.1.2-.2.5-.3.8 0 .1 0 .1-.1.2-.1.3-.2.6-.3.9 0 .1 0 .2-.1.2-.1.2-.1.5-.2.7 0 .1 0 .2-.1.4 0 .2-.1.4-.1.6 0 .1 0 .3 0 .4 0 .2 0 .4-.1.6 0 .1 0 .3 0 .4 0 .2 0 .4 0 .6 0 .1 0 .3 0 .4 0 .2 0 .4 0 .5 0 .1 0 .3 0 .4 0 .2 0 .4 0 .5 0 .1 0 .3.1.4 0 .2 0 .4.1.5 0 .1.1.3.1.4 0 .2.1.3.1.5 0 .1.1.3.1.4 0 .2.1.3.2.5 0 .1.1.3.1.4.1.2.1.3.2.5.1.1.1.3.2.4.1.2.1.3.2.5.1.1.1.3.2.4.1.2.2.3.3.5.1.1.1.2.2.4 0 .1.1.1.1.2.1.1.2.2.2.3 0 .1.1.2.1.2l241.2 359.4c0 0 0 0 0 0 .1.1.1.2.2.2 0 0 .1.1.1.1 0 0 0 .1.1.1.1.1.2.3.3.4.1.1.2.3.3.4 0 0 .1.1.1.1.1.1.2.2.3.3.1.1.2.2.3.4.1.1.1.1.2.2.1.1.2.2.3.3.1.1.1.1.2.2.1.1.2.2.3.2.1.1.2.2.4.3.1.1.2.1.2.2.1.1.2.1.3.2.2.1.3.2.5.4.1.1.2.2.4.2.3.2.6.4.9.5 0 0 .1 0 .1.1.1.1.2.1.3.2.2.1.3.2.5.2.1.1.2.1.4.1.1 0 .1.1.2.1 0 0 .1 0 .1 0 .1 0 .2.1.3.1.1 0 .3.1.4.1.2.1.4.1.5.2 0 0 .1 0 .1 0 0 0 .1 0 .1 0 .2 0 .3.1.5.1 0 0 0 0 .1 0 .1 0 .3.1.4.1.1 0 .1 0 .2 0 .1 0 .3 0 .4.1.1 0 .2 0 .3 0 .1 0 .2 0 .3 0 .2 0 .3 0 .5 0 .3 0 .7 0 1 0 0 0 0 0 .1 0 0 0 0 0 .1 0 .3 0 .7 0 1 0 .1 0 .3 0 .4 0 .1 0 .2 0 .3 0 .1 0 .2 0 .3 0 .1 0 .3 0 .4-.1.1 0 .2 0 .2 0 .1 0 .3-.1.4-.1 0 0 .1 0 .1 0 .1 0 .3-.1.4-.1 0 0 0 0 .1 0 0 0 .1 0 .1 0 0 0 .1 0 .1 0 .2-.1.4-.1.5-.2.1 0 .2-.1.3-.1.1 0 .2-.1.4-.1 0 0 .1 0 .1 0 .1 0 .1-.1.2-.1.1 0 .2-.1.3-.1.2-.1.4-.2.5-.3.1-.1.2-.1.3-.2 0 0 .1 0 .1 0 .3-.2.6-.3.9-.5.1-.1.2-.2.4-.2.2-.1.4-.2.5-.4.1-.1.2-.1.3-.2.1-.1.2-.1.3-.2.1-.1.3-.2.4-.3.1-.1.2-.1.2-.2.1-.1.1-.1.2-.2.1-.1.2-.2.3-.3.1-.1.1-.1.2-.2.1-.1.2-.2.3-.3.1-.1.2-.2.3-.3 0 0 .1-.1.1-.2.1-.1.2-.3.3-.4.1-.1.2-.3.3-.4 0 0 0 0 0-.1 0-.1.1-.1.1-.2.1-.1.1-.2.2-.2l241.2-359.4c0-.1.1-.2.1-.2.1-.1.2-.2.2-.3 0-.1.1-.1.1-.2.1-.1.1-.2.2-.4.1-.2.2-.3.3-.5.1-.1.1-.3.2-.4.1-.2.2-.3.2-.5.1-.1.1-.3.2-.4.1-.2.1-.3.2-.5 0-.1.1-.3.1-.4.1-.2.1-.3.1-.5 0-.1.1-.3.1-.4 0-.2.1-.3.1-.5 0-.1.1-.3.1-.4 0-.2.1-.4.1-.5 0-.1 0-.3.1-.4 0-.2 0-.4 0-.5 0-.1 0-.3 0-.4 0-.2 0-.4 0-.5 0-.1 0-.3 0-.4.6-.2.6-.3.6-.5m-304.3-106.9h96.6l29.9 93h-156.4l29.9-93m-120 0h88.9l-29.9 93h-107.6l48.6-93m-45.2 122.5h103.8l71.6 261.3-175.4-261.3m213.5 288.8l-79.1-288.7h158.2l-79.1 288.7m38.1-27.5l71.6-261.3h103.8l-175.4 261.3m71.1-290.8l-29.9-93h88.9l48.6 93c.1 0-107.6 0-107.6 0" fill="url(#0)"/></svg>