<svg xmlns="http://www.w3.org/2000/svg" viewBox="0 0 512 512" enable-background="new 0 0 512 512" xmlns:xlink="http://www.w3.org/1999/xlink"><defs><linearGradient id="0" gradientUnits="userSpaceOnUse" y1="0" x2="0" y2="512"><stop stop-color="#fff"/><stop stop-color="#286586"/><stop offset="1" stop-color="#1a3356"/><stop offset="1"/></linearGradient><linearGradient id="1" gradientUnits="userSpaceOnUse" y1="100" x2="0" y2="230" xlink:href="#0"/></defs><path d="m256 0c-91 0-165 74-165 165 0 117.2 88.9 264.1 153.5 341.6 6 7.2 17.1 7.2 23.1 0 55.8-67.1 153.4-217.6 153.4-341.6 0-91-74-165-165-165m0 472.8c-34.6-45.3-135-187.3-135-307.8 0-74.4 60.6-135 135-135s135 60.6 135 135c0 102.2-73.5 227.4-135 307.8" fill="url(#0)"/><path d="m256 100c-35.8 0-65 29.2-65 65s29.2 65 65 65 65-29.2 65-65-29.2-65-65-65m0 100c-19.3 0-35-15.7-35-35s15.7-35 35-35 35 15.7 35 35-15.7 35-35 35" fill="url(#1)"/></svg>