<svg xmlns="http://www.w3.org/2000/svg" viewBox="0 0 235.1 235.1" enable-background="new 0 0 235.1 235.1" xmlns:xlink="http://www.w3.org/1999/xlink"><defs><linearGradient id="0" gradientUnits="userSpaceOnUse" x1="117.28" y1="-3.553" x2="117.78" y2="220.45"><stop stop-color="#fff"/><stop stop-color="#286586"/><stop offset="1" stop-color="#1a3356"/><stop offset="1"/></linearGradient><linearGradient id="1" gradientUnits="userSpaceOnUse" x1="117.28" y1="-3.553" x2="117.78" y2="220.45" xlink:href="#0"/></defs><path d="m8.4 126h218.3c4.6 0 8.4-3.8 8.4-8.4 0-4.6-3.8-8.4-8.4-8.4h-218.3c-4.6 0-8.4 3.8-8.4 8.4 0 4.6 3.8 8.4 8.4 8.4" fill="url(#0)"/><path d="m126 226.7v-218.3c0-4.6-3.8-8.4-8.4-8.4-4.6 0-8.4 3.8-8.4 8.4v218.3c0 4.6 3.8 8.4 8.4 8.4 4.6 0 8.4-3.8 8.4-8.4" fill="url(#1)"/></svg>