<svg xmlns="http://www.w3.org/2000/svg" viewBox="0 0 512 512" enable-background="new 0 0 512 512" xmlns:xlink="http://www.w3.org/1999/xlink"><defs><linearGradient id="0" gradientUnits="userSpaceOnUse" y1="-23.521" x2="0" y2="496.13"><stop stop-color="#fff"/><stop stop-color="#286586"/><stop offset="1" stop-color="#1a3356"/><stop offset="1"/></linearGradient><linearGradient id="1" gradientUnits="userSpaceOnUse" y1="-30.834" x2="0" y2="488.33" xlink:href="#0"/><linearGradient id="2" gradientUnits="userSpaceOnUse" y1="21.577" x2="0" y2="434.95" xlink:href="#0"/></defs><path d="m461.4 78.5l-200-77.5c-3.5-1.4-7.4-1.4-10.8 0l-200 77.5c-5.8 2.2-9.6 7.8-9.6 14v38c0 146.2 69.8 288.1 206.7 379 5 3.3 11.6 3.3 16.6 0 135.7-90.1 206.7-231.4 206.7-379v-38c0-6.2-3.8-11.8-9.6-14m-20.4 52c0 134-62.8 263.5-185 348.4-122.3-85-185-214.4-185-348.4v-27.7l185-71.7 185 71.7v27.7" fill="url(#0)"/><path d="m411.4 112.7l-150-58.1c-3.5-1.3-7.4-1.3-10.8 0l-150 58.1c-5.8 2.2-9.6 7.8-9.6 14 0 132.8 60.5 247.2 155.8 320.9 5.4 4.2 12.9 4.2 18.3 0 95.3-73.6 155.9-187.9 155.9-320.9 0-6.2-3.8-11.7-9.6-14m-155.4 303.9c-86.9-71.8-133.1-175.2-134.9-279.6l134.9-52.3 134.9 52.3c-1.8 104.4-48 207.8-134.9 279.6" fill="url(#1)"/><path d="m326.6 201.3c-5.9-5.9-15.4-5.9-21.2 0l-70.1 70.1-28.7-28.7c-5.9-5.9-15.4-5.9-21.2 0s-5.9 15.4 0 21.2l39.3 39.3c5.9 5.9 15.4 5.9 21.2 0l80.7-80.7c5.9-5.9 5.9-15.4 0-21.2" fill="url(#2)"/></svg>