<svg xmlns="http://www.w3.org/2000/svg" viewBox="0 0 235.1 235.1" enable-background="new 0 0 235.1 235.1"><defs><linearGradient id="0" gradientUnits="userSpaceOnUse" y1="-11" x2="0" y2="237.89"><stop stop-color="#fff"/><stop stop-color="#286586"/><stop offset="1" stop-color="#1a3356"/><stop offset="1"/></linearGradient></defs><path d="m209.9 77.6h-4.3c-12-45.4-41.6-77.6-88.1-77.6-46.2 0-75.8 32.3-87.9 77.6h-4.4c-13.9 0-25.2 11.6-25.2 25.9v29.1c0 14.3 11.3 25.9 25.2 25.9h3.1c4 32.6 31.3 63.5 64.1 63.5h-1.6c3.2 7.7 10.6 13.1 19.3 13.1h21.3c11.6 0 21-9.7 21-21.5 0-11.9-9.4-21.5-21-21.5h-21.3c-8.7 0-16.1 5.4-19.3 13.1h1.6c-26.6 0-48.3-27.8-48.3-55.1v-63.1c8.5-40.7 32.8-70.2 73.3-70.2 40.7 0 65.1 29.5 73.3 70.1v63.1c0 4.6 3.7 8.4 8.2 8.4h10.8c13.9 0 25.2-11.6 25.2-25.9v-29.1c.2-14.2-11.1-25.8-25-25.8m-99.7 131.3h21.3c2.5 0 4.6 2.1 4.6 4.7 0 2.6-2.1 4.7-4.6 4.7h-21.3c-2.5 0-4.6-2.1-4.6-4.7s2.1-4.7 4.6-4.7m-93.8-76.3v-29.1c0-5 4-9.1 8.8-9.1h2.6v47.2h-2.6c-4.8.1-8.8-4-8.8-9m202.3 0c0 5-4 9.1-8.8 9.1h-2.6v-47.3h2.6c4.9 0 8.8 4.1 8.8 9.1v29.1" fill="url(#0)"/></svg>